<svg width="800" height="695" viewBox="0 0 800 695" fill="none" xmlns="http://www.w3.org/2000/svg">
<path d="M154 19L434 19" stroke="#FF3131" stroke-width="2" stroke-linecap="round" stroke-linejoin="round"/>
<path d="M440 187H434" stroke="#FF3131" stroke-width="2" stroke-linecap="round" stroke-linejoin="round"/>
<path d="M485 187H545V376H602" stroke="#FF3131" stroke-width="2" stroke-linecap="round" stroke-linejoin="round"/>
<path d="M434 187L434 93.5" stroke="#FF3131" stroke-width="2" stroke-linecap="round" stroke-linejoin="round"/>
<path d="M434 74L434 19" stroke="#FF3131" stroke-width="2" stroke-linecap="round" stroke-linejoin="round"/>
<circle cx="170" cy="19" r="6" fill="#FF3232"/>
<path d="M545 240L551.062 250.5L538.938 250.5L545 240Z" fill="#FF3232"/>
<path d="M366 19L376.5 12.9378L376.5 25.0622L366 19Z" fill="#FF3232"/>
<path d="M616.5 376L624 376M632 376L642 376L642 348.5M642 340L642 348.5M642 348.5L667 348.5" stroke="#6D9FBB" stroke-linecap="round" stroke-linejoin="round"/>
<circle cx="628" cy="376" r="2" fill="#6D9FBB"/>
<circle cx="642" cy="325" r="14.5" stroke="#6D9FBB"/>
<path d="M634.139 320.608V322H633.67V318.445H634.981C635.37 318.445 635.674 318.545 635.894 318.743C636.115 318.942 636.226 319.205 636.226 319.532C636.226 319.877 636.118 320.143 635.901 320.33C635.687 320.516 635.378 320.608 634.976 320.608H634.139ZM634.139 320.225H634.981C635.232 320.225 635.424 320.167 635.557 320.049C635.691 319.931 635.757 319.76 635.757 319.537C635.757 319.325 635.691 319.156 635.557 319.029C635.424 318.902 635.241 318.836 635.008 318.831H634.139V320.225ZM637.872 320.416C637.47 320.3 637.177 320.158 636.993 319.991C636.81 319.821 636.719 319.613 636.719 319.366C636.719 319.086 636.831 318.855 637.054 318.672C637.278 318.488 637.57 318.396 637.928 318.396C638.172 318.396 638.389 318.444 638.58 318.538C638.772 318.632 638.92 318.763 639.024 318.929C639.13 319.095 639.183 319.276 639.183 319.473H638.711C638.711 319.258 638.643 319.09 638.506 318.968C638.37 318.844 638.177 318.782 637.928 318.782C637.697 318.782 637.516 318.833 637.386 318.936C637.257 319.037 637.193 319.178 637.193 319.358C637.193 319.503 637.254 319.626 637.376 319.727C637.5 319.826 637.709 319.917 638.003 320C638.3 320.083 638.531 320.175 638.697 320.276C638.864 320.376 638.988 320.492 639.068 320.625C639.149 320.759 639.19 320.916 639.19 321.097C639.19 321.385 639.078 321.616 638.853 321.79C638.628 321.963 638.328 322.049 637.952 322.049C637.708 322.049 637.48 322.002 637.269 321.91C637.057 321.815 636.893 321.687 636.778 321.524C636.664 321.361 636.607 321.176 636.607 320.97H637.078C637.078 321.185 637.157 321.355 637.315 321.48C637.474 321.604 637.687 321.666 637.952 321.666C638.2 321.666 638.389 321.615 638.521 321.514C638.653 321.413 638.719 321.276 638.719 321.102C638.719 320.927 638.658 320.793 638.536 320.699C638.414 320.603 638.192 320.508 637.872 320.416ZM641.756 321.072H640.267L639.932 322H639.449L640.806 318.445H641.216L642.576 322H642.095L641.756 321.072ZM640.408 320.687H641.617L641.011 319.024L640.408 320.687ZM643.924 320.674H642.732V320.306H643.924V320.674ZM647.168 322H646.697V320.357H644.905V322H644.437V318.445H644.905V319.974H646.697V318.445H647.168V322ZM648.47 320.608V322H648.001V318.445H649.312C649.701 318.445 650.005 318.545 650.225 318.743C650.446 318.942 650.557 319.205 650.557 319.532C650.557 319.877 650.449 320.143 650.232 320.33C650.018 320.516 649.709 320.608 649.307 320.608H648.47ZM648.47 320.225H649.312C649.563 320.225 649.755 320.167 649.888 320.049C650.022 319.931 650.088 319.76 650.088 319.537C650.088 319.325 650.022 319.156 649.888 319.029C649.755 318.902 649.572 318.836 649.339 318.831H648.47V320.225Z" fill="white"/>
<line x1="627.5" y1="324.5" x2="656.5" y2="324.5" stroke="#6D9FBB" stroke-linecap="round" stroke-linejoin="round"/>
<circle cx="674" cy="325" r="14.5" stroke="#6D9FBB"/>
<path d="M666.576 320.608V322H666.107V318.445H667.418C667.807 318.445 668.111 318.545 668.331 318.743C668.552 318.942 668.663 319.205 668.663 319.532C668.663 319.877 668.555 320.143 668.338 320.33C668.124 320.516 667.815 320.608 667.413 320.608H666.576ZM666.576 320.225H667.418C667.669 320.225 667.861 320.167 667.994 320.049C668.128 319.931 668.194 319.76 668.194 319.537C668.194 319.325 668.128 319.156 667.994 319.029C667.861 318.902 667.678 318.836 667.445 318.831H666.576V320.225ZM670.309 320.416C669.907 320.3 669.614 320.158 669.43 319.991C669.247 319.821 669.156 319.613 669.156 319.366C669.156 319.086 669.268 318.855 669.491 318.672C669.715 318.488 670.007 318.396 670.365 318.396C670.609 318.396 670.826 318.444 671.017 318.538C671.209 318.632 671.357 318.763 671.461 318.929C671.567 319.095 671.62 319.276 671.62 319.473H671.148C671.148 319.258 671.08 319.09 670.943 318.968C670.807 318.844 670.614 318.782 670.365 318.782C670.134 318.782 669.953 318.833 669.823 318.936C669.694 319.037 669.63 319.178 669.63 319.358C669.63 319.503 669.691 319.626 669.813 319.727C669.937 319.826 670.146 319.917 670.44 320C670.737 320.083 670.968 320.175 671.134 320.276C671.301 320.376 671.425 320.492 671.505 320.625C671.586 320.759 671.627 320.916 671.627 321.097C671.627 321.385 671.515 321.616 671.29 321.79C671.065 321.963 670.765 322.049 670.389 322.049C670.145 322.049 669.917 322.002 669.706 321.91C669.494 321.815 669.33 321.687 669.215 321.524C669.101 321.361 669.044 321.176 669.044 320.97H669.515C669.515 321.185 669.594 321.355 669.752 321.48C669.911 321.604 670.124 321.666 670.389 321.666C670.637 321.666 670.826 321.615 670.958 321.514C671.09 321.413 671.156 321.276 671.156 321.102C671.156 320.927 671.095 320.793 670.973 320.699C670.851 320.603 670.629 320.508 670.309 320.416ZM674.193 321.072H672.704L672.369 322H671.886L673.243 318.445H673.653L675.013 322H674.532L674.193 321.072ZM672.845 320.687H674.054L673.448 319.024L672.845 320.687ZM676.361 320.674H675.169V320.306H676.361V320.674ZM677.345 321.617H679.029V322H676.874V318.445H677.345V321.617ZM680.033 320.608V322H679.564V318.445H680.875C681.264 318.445 681.568 318.545 681.788 318.743C682.009 318.942 682.12 319.205 682.12 319.532C682.12 319.877 682.012 320.143 681.795 320.33C681.581 320.516 681.272 320.608 680.87 320.608H680.033ZM680.033 320.225H680.875C681.126 320.225 681.318 320.167 681.451 320.049C681.585 319.931 681.651 319.76 681.651 319.537C681.651 319.325 681.585 319.156 681.451 319.029C681.318 318.902 681.135 318.836 680.902 318.831H680.033V320.225Z" fill="white"/>
<line x1="659.5" y1="324.5" x2="688.5" y2="324.5" stroke="#6D9FBB" stroke-linecap="round" stroke-linejoin="round"/>
<path d="M674 358V475H616" stroke="#6D9FBB" stroke-linecap="round" stroke-linejoin="round" stroke-dasharray="5 5"/>
<rect x="701.5" y="245.5" width="78" height="119" rx="4.5" fill="#FFA200" fill-opacity="0.05" stroke="#E6D9B9"/>
<path d="M716.553 265.01C716.553 265.846 716.412 266.576 716.131 267.201C715.85 267.822 715.451 268.297 714.936 268.625C714.42 268.953 713.818 269.117 713.131 269.117C712.459 269.117 711.863 268.953 711.344 268.625C710.824 268.293 710.42 267.822 710.131 267.213C709.846 266.6 709.699 265.891 709.691 265.086V264.471C709.691 263.65 709.834 262.926 710.119 262.297C710.404 261.668 710.807 261.188 711.326 260.855C711.85 260.52 712.447 260.352 713.119 260.352C713.803 260.352 714.404 260.518 714.924 260.85C715.447 261.178 715.85 261.656 716.131 262.285C716.412 262.91 716.553 263.639 716.553 264.471V265.01ZM715.434 264.459C715.434 263.447 715.23 262.672 714.824 262.133C714.418 261.59 713.85 261.318 713.119 261.318C712.408 261.318 711.848 261.59 711.438 262.133C711.031 262.672 710.822 263.422 710.811 264.383V265.01C710.811 265.99 711.016 266.762 711.426 267.324C711.84 267.883 712.408 268.162 713.131 268.162C713.857 268.162 714.42 267.898 714.818 267.371C715.217 266.84 715.422 266.08 715.434 265.092V264.459ZM723.256 269H722.172V263.557H719.254V269H718.164V262.66H723.256V269ZM725.09 262.66H726.18V268.115H729.098V262.66H730.182V268.115H730.938L730.832 270.881H729.859V269H725.09V262.66ZM733.287 269H732.203V262.66H733.287V269ZM732.115 260.979C732.115 260.803 732.168 260.654 732.273 260.533C732.383 260.412 732.543 260.352 732.754 260.352C732.965 260.352 733.125 260.412 733.234 260.533C733.344 260.654 733.398 260.803 733.398 260.979C733.398 261.154 733.344 261.301 733.234 261.418C733.125 261.535 732.965 261.594 732.754 261.594C732.543 261.594 732.383 261.535 732.273 261.418C732.168 261.301 732.115 261.154 732.115 260.979ZM739.873 262.66V269H738.783V266.533H737.148L735.654 269H734.482L736.076 266.369C735.67 266.221 735.357 265.992 735.139 265.684C734.924 265.371 734.816 265.008 734.816 264.594C734.816 264.016 735.033 263.551 735.467 263.199C735.9 262.844 736.48 262.664 737.207 262.66H739.873ZM735.906 264.605C735.906 264.914 736.012 265.164 736.223 265.355C736.434 265.543 736.713 265.639 737.061 265.643H738.783V263.539H737.225C736.822 263.539 736.502 263.639 736.264 263.838C736.025 264.033 735.906 264.289 735.906 264.605ZM744.76 269V260.469H747.168C747.91 260.469 748.566 260.633 749.137 260.961C749.707 261.289 750.146 261.756 750.455 262.361C750.768 262.967 750.926 263.662 750.93 264.447V264.992C750.93 265.797 750.773 266.502 750.461 267.107C750.152 267.713 749.709 268.178 749.131 268.502C748.557 268.826 747.887 268.992 747.121 269H744.76ZM745.885 261.395V268.08H747.068C747.936 268.08 748.609 267.811 749.09 267.271C749.574 266.732 749.816 265.965 749.816 264.969V264.471C749.816 263.502 749.588 262.75 749.131 262.215C748.678 261.676 748.033 261.402 747.197 261.395H745.885ZM755.916 269H754.826V261.775L752.641 262.578V261.594L755.746 260.428H755.916V269ZM761.459 265.818H758.6V264.934H761.459V265.818ZM769.246 269H768.115V265.057H763.814V269H762.689V260.469H763.814V264.137H768.115V260.469H769.246V269Z" fill="white"/>
<circle cx="740" cy="325" r="14.5" stroke="#6D9FBB"/>
<path d="M732.139 320.608V322H731.67V318.445H732.981C733.37 318.445 733.674 318.545 733.894 318.743C734.115 318.942 734.226 319.205 734.226 319.532C734.226 319.877 734.118 320.143 733.901 320.33C733.687 320.516 733.378 320.608 732.976 320.608H732.139ZM732.139 320.225H732.981C733.232 320.225 733.424 320.167 733.557 320.049C733.691 319.931 733.757 319.76 733.757 319.537C733.757 319.325 733.691 319.156 733.557 319.029C733.424 318.902 733.241 318.836 733.008 318.831H732.139V320.225ZM735.872 320.416C735.47 320.3 735.177 320.158 734.993 319.991C734.81 319.821 734.719 319.613 734.719 319.366C734.719 319.086 734.831 318.855 735.054 318.672C735.278 318.488 735.57 318.396 735.928 318.396C736.172 318.396 736.389 318.444 736.58 318.538C736.772 318.632 736.92 318.763 737.024 318.929C737.13 319.095 737.183 319.276 737.183 319.473H736.711C736.711 319.258 736.643 319.09 736.506 318.968C736.37 318.844 736.177 318.782 735.928 318.782C735.697 318.782 735.516 318.833 735.386 318.936C735.257 319.037 735.193 319.178 735.193 319.358C735.193 319.503 735.254 319.626 735.376 319.727C735.5 319.826 735.709 319.917 736.003 320C736.3 320.083 736.531 320.175 736.697 320.276C736.864 320.376 736.988 320.492 737.068 320.625C737.149 320.759 737.19 320.916 737.19 321.097C737.19 321.385 737.078 321.616 736.853 321.79C736.628 321.963 736.328 322.049 735.952 322.049C735.708 322.049 735.48 322.002 735.269 321.91C735.057 321.815 734.893 321.687 734.778 321.524C734.664 321.361 734.607 321.176 734.607 320.97H735.078C735.078 321.185 735.157 321.355 735.315 321.48C735.474 321.604 735.687 321.666 735.952 321.666C736.2 321.666 736.389 321.615 736.521 321.514C736.653 321.413 736.719 321.276 736.719 321.102C736.719 320.927 736.658 320.793 736.536 320.699C736.414 320.603 736.192 320.508 735.872 320.416ZM739.756 321.072H738.267L737.932 322H737.449L738.806 318.445H739.216L740.576 322H740.095L739.756 321.072ZM738.408 320.687H739.617L739.011 319.024L738.408 320.687ZM741.924 320.674H740.732V320.306H741.924V320.674ZM745.168 322H744.697V320.357H742.905V322H742.437V318.445H742.905V319.974H744.697V318.445H745.168V322ZM746.47 320.608V322H746.001V318.445H747.312C747.701 318.445 748.005 318.545 748.225 318.743C748.446 318.942 748.557 319.205 748.557 319.532C748.557 319.877 748.449 320.143 748.232 320.33C748.018 320.516 747.709 320.608 747.307 320.608H746.47ZM746.47 320.225H747.312C747.563 320.225 747.755 320.167 747.888 320.049C748.022 319.931 748.088 319.76 748.088 319.537C748.088 319.325 748.022 319.156 747.888 319.029C747.755 318.902 747.572 318.836 747.339 318.831H746.47V320.225Z" fill="white"/>
<line x1="725.5" y1="324.5" x2="754.5" y2="324.5" stroke="#6D9FBB" stroke-linecap="round" stroke-linejoin="round"/>
<path d="M705.5 348.5H740V340M681 348.5H697.5" stroke="#6D9FBB" stroke-linecap="round" stroke-linejoin="round"/>
<path d="M667 348.5C667 352.366 670.134 355 674 355C677.866 355 681 352.366 681 348.5" stroke="#6D9FBB" stroke-linecap="round" stroke-linejoin="round"/>
<mask id="path-25-inside-1" fill="white">
<path d="M105.801 489.268V512.465V489.268ZM105.801 512.465H91.8617H105.801ZM91.8617 512.465V489.268V512.465ZM91.8617 489.268H105.801H91.8617Z"/>
</mask>
<path d="M104.801 489.268V512.465H106.801V489.268H104.801ZM106.801 512.465V489.268H104.801V512.465H106.801ZM105.801 511.465H91.8617V513.465H105.801V511.465ZM91.8617 513.465H105.801V511.465H91.8617V513.465ZM92.8617 512.465V489.268H90.8617V512.465H92.8617ZM90.8617 489.268V512.465H92.8617V489.268H90.8617ZM91.8617 490.268H105.801V488.268H91.8617V490.268Z" fill="white" mask="url(#path-25-inside-1)"/>
<circle cx="163" cy="689" r="6" fill="#53ACFF"/>
<rect x="25" y="1" width="128" height="103.814" rx="4" stroke="white" stroke-width="2"/>
<path d="M547 554L536.5 560.062L536.5 547.938L547 554Z" fill="#53F3E0"/>
<path d="M99 267L99 187" stroke="#53ACFF" stroke-width="2" stroke-linecap="round" stroke-linejoin="round"/>
<path d="M163 649L156.938 638.5L169.062 638.5L163 649Z" fill="#53ACFF"/>
<path d="M70 267H99" stroke="#53ACFF" stroke-width="2" stroke-linecap="round" stroke-linejoin="round"/>
<path d="M155 85L380 85" stroke="#53ACFF" stroke-width="2" stroke-linecap="round" stroke-linejoin="round"/>
<path d="M380 85.4791V186.683" stroke="#53ACFF" stroke-width="2" stroke-linecap="round" stroke-linejoin="round"/>
<path d="M99 187L380 187" stroke="#53ACFF" stroke-width="2" stroke-linecap="round" stroke-linejoin="round"/>
<circle cx="170.5" cy="85.5" r="6.5" fill="#53ACFF"/>
<path d="M99 247L92.9378 236.5L105.062 236.5L99 247Z" fill="#53ACFF"/>
<path d="M156 187L166.5 180.938L166.5 193.062L156 187Z" fill="#53ACFF"/>
<path d="M377 398H329" stroke="#FFC700" stroke-width="2" stroke-linecap="round" stroke-linejoin="round"/>
<path d="M440 398H412" stroke="#FFC700" stroke-width="2" stroke-linecap="round" stroke-linejoin="round"/>
<path d="M545 398L491 398" stroke="#FFC700" stroke-width="2" stroke-linecap="round" stroke-linejoin="round"/>
<path d="M584 422L545 422" stroke="#FFC700" stroke-width="2" stroke-linecap="round" stroke-linejoin="round"/>
<path d="M545 398V422" stroke="#FFC700" stroke-width="2" stroke-linecap="round" stroke-linejoin="round"/>
<path d="M329 313L329 398" stroke="#FFC700" stroke-width="2" stroke-linecap="round" stroke-linejoin="round"/>
<path d="M413 313H453" stroke="#FFC700" stroke-width="2" stroke-linecap="round" stroke-linejoin="round"/>
<path d="M463 303L463 249" stroke="#FFC700" stroke-width="2" stroke-linecap="round" stroke-linejoin="round"/>
<path d="M329 313L357 313" stroke="#FFC700" stroke-width="2" stroke-linecap="round" stroke-linejoin="round"/>
<path d="M518.5 372V442C518.5 444.485 516.485 446.5 514 446.5H291C288.515 446.5 286.5 444.485 286.5 442V372C286.5 369.515 288.515 367.5 291 367.5H514C516.485 367.5 518.5 369.515 518.5 372Z" fill="#FFA200" fill-opacity="0.05" stroke="#E5D9B9"/>
<path d="M313.553 425.01C313.553 425.846 313.412 426.576 313.131 427.201C312.85 427.822 312.451 428.297 311.936 428.625C311.42 428.953 310.818 429.117 310.131 429.117C309.459 429.117 308.863 428.953 308.344 428.625C307.824 428.293 307.42 427.822 307.131 427.213C306.846 426.6 306.699 425.891 306.691 425.086V424.471C306.691 423.65 306.834 422.926 307.119 422.297C307.404 421.668 307.807 421.188 308.326 420.855C308.85 420.52 309.447 420.352 310.119 420.352C310.803 420.352 311.404 420.518 311.924 420.85C312.447 421.178 312.85 421.656 313.131 422.285C313.412 422.91 313.553 423.639 313.553 424.471V425.01ZM312.434 424.459C312.434 423.447 312.23 422.672 311.824 422.133C311.418 421.59 310.85 421.318 310.119 421.318C309.408 421.318 308.848 421.59 308.438 422.133C308.031 422.672 307.822 423.422 307.811 424.383V425.01C307.811 425.99 308.016 426.762 308.426 427.324C308.84 427.883 309.408 428.162 310.131 428.162C310.857 428.162 311.42 427.898 311.818 427.371C312.217 426.84 312.422 426.08 312.434 425.092V424.459ZM320.256 429H319.172V423.557H316.254V429H315.164V422.66H320.256V429ZM322.09 422.66H323.18V428.115H326.098V422.66H327.182V428.115H327.938L327.832 430.881H326.859V429H322.09V422.66ZM330.287 429H329.203V422.66H330.287V429ZM329.115 420.979C329.115 420.803 329.168 420.654 329.273 420.533C329.383 420.412 329.543 420.352 329.754 420.352C329.965 420.352 330.125 420.412 330.234 420.533C330.344 420.654 330.398 420.803 330.398 420.979C330.398 421.154 330.344 421.301 330.234 421.418C330.125 421.535 329.965 421.594 329.754 421.594C329.543 421.594 329.383 421.535 329.273 421.418C329.168 421.301 329.115 421.154 329.115 420.979ZM336.873 422.66V429H335.783V426.533H334.148L332.654 429H331.482L333.076 426.369C332.67 426.221 332.357 425.992 332.139 425.684C331.924 425.371 331.816 425.008 331.816 424.594C331.816 424.016 332.033 423.551 332.467 423.199C332.9 422.844 333.48 422.664 334.207 422.66H336.873ZM332.906 424.605C332.906 424.914 333.012 425.164 333.223 425.355C333.434 425.543 333.713 425.639 334.061 425.643H335.783V423.539H334.225C333.822 423.539 333.502 423.639 333.264 423.838C333.025 424.033 332.906 424.289 332.906 424.605ZM346.465 425.232H342.885V429H341.76V420.469H347.045V421.395H342.885V424.312H346.465V425.232ZM354.955 425.01C354.955 425.846 354.814 426.576 354.533 427.201C354.252 427.822 353.854 428.297 353.338 428.625C352.822 428.953 352.221 429.117 351.533 429.117C350.861 429.117 350.266 428.953 349.746 428.625C349.227 428.293 348.822 427.822 348.533 427.213C348.248 426.6 348.102 425.891 348.094 425.086V424.471C348.094 423.65 348.236 422.926 348.521 422.297C348.807 421.668 349.209 421.188 349.729 420.855C350.252 420.52 350.85 420.352 351.521 420.352C352.205 420.352 352.807 420.518 353.326 420.85C353.85 421.178 354.252 421.656 354.533 422.285C354.814 422.91 354.955 423.639 354.955 424.471V425.01ZM353.836 424.459C353.836 423.447 353.633 422.672 353.227 422.133C352.82 421.59 352.252 421.318 351.521 421.318C350.811 421.318 350.25 421.59 349.84 422.133C349.434 422.672 349.225 423.422 349.213 424.383V425.01C349.213 425.99 349.418 426.762 349.828 427.324C350.242 427.883 350.811 428.162 351.533 428.162C352.26 428.162 352.822 427.898 353.221 427.371C353.619 426.84 353.824 426.08 353.836 425.092V424.459Z" fill="white"/>
<path d="M491 398C491 384.193 479.807 373 466 373C452.193 373 441 384.193 441 398" stroke="#1B6C86" stroke-width="2"/>
<circle cx="491" cy="398" r="5.5" stroke="#1B6C86"/>
<circle cx="441" cy="398" r="5.5" stroke="#1B6C86"/>
<circle r="4" transform="matrix(-1 0 0 1 491 398)" fill="#1B6C86"/>
<circle r="4" transform="matrix(-1 0 0 1 441 398)" fill="#1B6C86"/>
<rect x="377.5" y="389.5" width="34" height="16" rx="4.5" stroke="white"/>
<line x1="394.5" y1="389.5" x2="394.5" y2="392.5" stroke="white" stroke-linecap="round" stroke-linejoin="round"/>
<line x1="394.5" y1="402.5" x2="394.5" y2="405.5" stroke="white" stroke-linecap="round" stroke-linejoin="round"/>
<line x1="394.5" y1="395.5" x2="394.5" y2="399.5" stroke="white" stroke-linecap="round" stroke-linejoin="round"/>
<path d="M410 155.5L514 155.5C516.485 155.5 518.5 157.515 518.5 160V334C518.5 336.485 516.485 338.5 514 338.5H291C288.515 338.5 286.5 336.485 286.5 334V264.5C286.5 262.015 288.515 260 291 260H400C403.038 260 405.5 257.538 405.5 254.5V160C405.5 157.515 407.515 155.5 410 155.5Z" fill="#FFA200" fill-opacity="0.05" stroke="#E5D9B9"/>
<path d="M313.553 287.01C313.553 287.846 313.412 288.576 313.131 289.201C312.85 289.822 312.451 290.297 311.936 290.625C311.42 290.953 310.818 291.117 310.131 291.117C309.459 291.117 308.863 290.953 308.344 290.625C307.824 290.293 307.42 289.822 307.131 289.213C306.846 288.6 306.699 287.891 306.691 287.086V286.471C306.691 285.65 306.834 284.926 307.119 284.297C307.404 283.668 307.807 283.188 308.326 282.855C308.85 282.52 309.447 282.352 310.119 282.352C310.803 282.352 311.404 282.518 311.924 282.85C312.447 283.178 312.85 283.656 313.131 284.285C313.412 284.91 313.553 285.639 313.553 286.471V287.01ZM312.434 286.459C312.434 285.447 312.23 284.672 311.824 284.133C311.418 283.59 310.85 283.318 310.119 283.318C309.408 283.318 308.848 283.59 308.438 284.133C308.031 284.672 307.822 285.422 307.811 286.383V287.01C307.811 287.99 308.016 288.762 308.426 289.324C308.84 289.883 309.408 290.162 310.131 290.162C310.857 290.162 311.42 289.898 311.818 289.371C312.217 288.84 312.422 288.08 312.434 287.092V286.459ZM320.256 291H319.172V285.557H316.254V291H315.164V284.66H320.256V291ZM322.09 284.66H323.18V290.115H326.098V284.66H327.182V290.115H327.938L327.832 292.881H326.859V291H322.09V284.66ZM330.287 291H329.203V284.66H330.287V291ZM329.115 282.979C329.115 282.803 329.168 282.654 329.273 282.533C329.383 282.412 329.543 282.352 329.754 282.352C329.965 282.352 330.125 282.412 330.234 282.533C330.344 282.654 330.398 282.803 330.398 282.979C330.398 283.154 330.344 283.301 330.234 283.418C330.125 283.535 329.965 283.594 329.754 283.594C329.543 283.594 329.383 283.535 329.273 283.418C329.168 283.301 329.115 283.154 329.115 282.979ZM336.873 284.66V291H335.783V288.533H334.148L332.654 291H331.482L333.076 288.369C332.67 288.221 332.357 287.992 332.139 287.684C331.924 287.371 331.816 287.008 331.816 286.594C331.816 286.016 332.033 285.551 332.467 285.199C332.9 284.844 333.48 284.664 334.207 284.66H336.873ZM332.906 286.605C332.906 286.914 333.012 287.164 333.223 287.355C333.434 287.543 333.713 287.639 334.061 287.643H335.783V285.539H334.225C333.822 285.539 333.502 285.639 333.264 285.838C333.025 286.033 332.906 286.289 332.906 286.605ZM348.322 287.01C348.322 287.846 348.182 288.576 347.9 289.201C347.619 289.822 347.221 290.297 346.705 290.625C346.189 290.953 345.588 291.117 344.9 291.117C344.229 291.117 343.633 290.953 343.113 290.625C342.594 290.293 342.189 289.822 341.9 289.213C341.615 288.6 341.469 287.891 341.461 287.086V286.471C341.461 285.65 341.604 284.926 341.889 284.297C342.174 283.668 342.576 283.188 343.096 282.855C343.619 282.52 344.217 282.352 344.889 282.352C345.572 282.352 346.174 282.518 346.693 282.85C347.217 283.178 347.619 283.656 347.9 284.285C348.182 284.91 348.322 285.639 348.322 286.471V287.01ZM347.203 286.459C347.203 285.447 347 284.672 346.594 284.133C346.188 283.59 345.619 283.318 344.889 283.318C344.178 283.318 343.617 283.59 343.207 284.133C342.801 284.672 342.592 285.422 342.58 286.383V287.01C342.58 287.99 342.785 288.762 343.195 289.324C343.609 289.883 344.178 290.162 344.9 290.162C345.627 290.162 346.189 289.898 346.588 289.371C346.986 288.84 347.191 288.08 347.203 287.092V286.459ZM351.018 291H349.934V282H351.018V291Z" fill="white"/>
<path d="M440.5 178C440.5 175.515 442.515 173.5 445 173.5H480C482.485 173.5 484.5 175.515 484.5 178V220.363C484.5 221.32 484.195 222.252 483.629 223.024L466.54 246.327C464.766 248.747 461.165 248.785 459.34 246.404L441.429 223.042C440.826 222.256 440.5 221.294 440.5 220.304V178Z" stroke="#6D9FBB"/>
<line x1="462.5" y1="173.5" x2="462.5" y2="194.5" stroke="#6D9FBB" stroke-linecap="round" stroke-linejoin="round"/>
<circle cx="463" cy="204" r="4.5" stroke="#6D9FBB"/>
<circle cx="463" cy="216" r="4.5" stroke="#6D9FBB"/>
<path d="M467.5 214.086L483.586 198" stroke="#6D9FBB" stroke-linecap="round" stroke-linejoin="round"/>
<circle cx="431" cy="238" r="4.5" stroke="#6D9FBB"/>
<path d="M432.983 237.31C432.971 237.291 432.954 237.275 432.933 237.264C432.913 237.253 432.89 237.247 432.866 237.247H431.109L431.404 235.139C431.407 235.111 431.4 235.083 431.384 235.059C431.367 235.035 431.343 235.017 431.315 235.007C431.286 234.998 431.255 234.998 431.226 235.007C431.197 235.016 431.173 235.034 431.156 235.057L429.02 238.562C429.007 238.581 429.001 238.603 429 238.625C429 238.648 429.005 238.67 429.017 238.689C429.029 238.709 429.046 238.725 429.066 238.736C429.087 238.748 429.11 238.754 429.134 238.754H430.865L430.631 240.864C430.629 240.892 430.637 240.92 430.653 240.944C430.67 240.967 430.695 240.985 430.723 240.994C430.752 241.002 430.783 241.002 430.811 240.993C430.839 240.983 430.864 240.965 430.88 240.941L432.981 237.437C432.993 237.418 433 237.396 433 237.374C433 237.352 432.994 237.33 432.983 237.31Z" fill="#6D9FBB"/>
<path d="M431 232H463L458.5 238L463 244H431" stroke="#6D9FBB" stroke-linecap="round" stroke-linejoin="round"/>
<path d="M463 313L453 313" stroke="white"/>
<path d="M468.196 303L463 312L457.804 303L468.196 303Z" stroke="white"/>
<path d="M463 303L463 313" stroke="white"/>
<path d="M453 307.804L462 313L453 318.196L453 307.804Z" stroke="white"/>
<circle r="1.5" transform="matrix(-1 0 0 1 463 313)" fill="white" stroke="white"/>
<path d="M412 313C412 299.193 400.807 288 387 288C373.193 288 362 299.193 362 313" stroke="#1B6C86" stroke-width="2"/>
<circle cx="412" cy="313" r="5.5" stroke="#1B6C86"/>
<circle cx="362" cy="313" r="5.5" stroke="#1B6C86"/>
<circle r="4" transform="matrix(-1 0 0 1 412 313)" fill="#1B6C86"/>
<circle r="4" transform="matrix(-1 0 0 1 362 313)" fill="#1B6C86"/>
<path d="M602 475L586.5 475L586.5 554L494 554" stroke="#53F3E0" stroke-width="2" stroke-linecap="round" stroke-linejoin="round"/>
<circle cx="245" cy="689" r="6" fill="#53F3E0"/>
<path d="M245 638L251.062 648.5H238.938L245 638Z" fill="#53F3E0"/>
<path d="M295.5 554L245 554V683.5" stroke="#53F3E0" stroke-width="2" stroke-linecap="round" stroke-linejoin="round"/>
<path d="M331.5 554L447 554" stroke="#53F3E0" stroke-width="2"/>
<path d="M505 631.5L435 631.5C432.515 631.5 430.5 629.485 430.5 627L430.5 502C430.5 499.515 432.515 497.5 435 497.5L505 497.5C507.485 497.5 509.5 499.515 509.5 502L509.5 627C509.5 629.485 507.485 631.5 505 631.5Z" fill="#FFA200" fill-opacity="0.05" stroke="#E5D9B9"/>
<path d="M453.553 514.01C453.553 514.846 453.412 515.576 453.131 516.201C452.85 516.822 452.451 517.297 451.936 517.625C451.42 517.953 450.818 518.117 450.131 518.117C449.459 518.117 448.863 517.953 448.344 517.625C447.824 517.293 447.42 516.822 447.131 516.213C446.846 515.6 446.699 514.891 446.691 514.086V513.471C446.691 512.65 446.834 511.926 447.119 511.297C447.404 510.668 447.807 510.188 448.326 509.855C448.85 509.52 449.447 509.352 450.119 509.352C450.803 509.352 451.404 509.518 451.924 509.85C452.447 510.178 452.85 510.656 453.131 511.285C453.412 511.91 453.553 512.639 453.553 513.471V514.01ZM452.434 513.459C452.434 512.447 452.23 511.672 451.824 511.133C451.418 510.59 450.85 510.318 450.119 510.318C449.408 510.318 448.848 510.59 448.438 511.133C448.031 511.672 447.822 512.422 447.811 513.383V514.01C447.811 514.99 448.016 515.762 448.426 516.324C448.84 516.883 449.408 517.162 450.131 517.162C450.857 517.162 451.42 516.898 451.818 516.371C452.217 515.84 452.422 515.08 452.434 514.092V513.459ZM460.256 518H459.172V512.557H456.254V518H455.164V511.66H460.256V518ZM462.09 511.66H463.18V517.115H466.098V511.66H467.182V517.115H467.938L467.832 519.881H466.859V518H462.09V511.66ZM470.287 518H469.203V511.66H470.287V518ZM469.115 509.979C469.115 509.803 469.168 509.654 469.273 509.533C469.383 509.412 469.543 509.352 469.754 509.352C469.965 509.352 470.125 509.412 470.234 509.533C470.344 509.654 470.398 509.803 470.398 509.979C470.398 510.154 470.344 510.301 470.234 510.418C470.125 510.535 469.965 510.594 469.754 510.594C469.543 510.594 469.383 510.535 469.273 510.418C469.168 510.301 469.115 510.154 469.115 509.979ZM476.873 511.66V518H475.783V515.533H474.148L472.654 518H471.482L473.076 515.369C472.67 515.221 472.357 514.992 472.139 514.684C471.924 514.371 471.816 514.008 471.816 513.594C471.816 513.016 472.033 512.551 472.467 512.199C472.9 511.844 473.48 511.664 474.207 511.66H476.873ZM472.906 513.605C472.906 513.914 473.012 514.164 473.223 514.355C473.434 514.543 473.713 514.639 474.061 514.643H475.783V512.539H474.225C473.822 512.539 473.502 512.639 473.264 512.838C473.025 513.033 472.906 513.289 472.906 513.605ZM484.273 514.197C483.309 513.92 482.605 513.58 482.164 513.178C481.727 512.771 481.508 512.271 481.508 511.678C481.508 511.006 481.775 510.451 482.311 510.014C482.85 509.572 483.549 509.352 484.408 509.352C484.994 509.352 485.516 509.465 485.973 509.691C486.434 509.918 486.789 510.23 487.039 510.629C487.293 511.027 487.42 511.463 487.42 511.936H486.289C486.289 511.42 486.125 511.016 485.797 510.723C485.469 510.426 485.006 510.277 484.408 510.277C483.854 510.277 483.42 510.4 483.107 510.646C482.799 510.889 482.645 511.227 482.645 511.66C482.645 512.008 482.791 512.303 483.084 512.545C483.381 512.783 483.883 513.002 484.59 513.201C485.301 513.4 485.855 513.621 486.254 513.863C486.656 514.102 486.953 514.381 487.145 514.701C487.34 515.021 487.438 515.398 487.438 515.832C487.438 516.523 487.168 517.078 486.629 517.496C486.09 517.91 485.369 518.117 484.467 518.117C483.881 518.117 483.334 518.006 482.826 517.783C482.318 517.557 481.926 517.248 481.648 516.857C481.375 516.467 481.238 516.023 481.238 515.527H482.369C482.369 516.043 482.559 516.451 482.938 516.752C483.32 517.049 483.83 517.197 484.467 517.197C485.061 517.197 485.516 517.076 485.832 516.834C486.148 516.592 486.307 516.262 486.307 515.844C486.307 515.426 486.16 515.104 485.867 514.877C485.574 514.646 485.043 514.42 484.273 514.197ZM492.166 518H491.076V510.775L488.891 511.578V510.594L491.996 509.428H492.166V518Z" fill="white"/>
<path d="M447.5 534.5H492.5V582.839L470 614.143L447.5 582.839V534.5Z" stroke="#6D9FBB" stroke-linecap="round" stroke-linejoin="round"/>
<path d="M492.5 554H478V580H460V545M447 554H454V580" stroke="#6D9FBB" stroke-linecap="round" stroke-linejoin="round"/>
<path d="M391 572.5L291 572.5C288.515 572.5 286.5 570.485 286.5 568L286.5 502C286.5 499.515 288.515 497.5 291 497.5L391 497.5C393.485 497.5 395.5 499.515 395.5 502L395.5 568C395.5 570.485 393.485 572.5 391 572.5Z" fill="#FFA200" fill-opacity="0.05" stroke="#E5D9B9"/>
<path d="M319.553 514.01C319.553 514.846 319.412 515.576 319.131 516.201C318.85 516.822 318.451 517.297 317.936 517.625C317.42 517.953 316.818 518.117 316.131 518.117C315.459 518.117 314.863 517.953 314.344 517.625C313.824 517.293 313.42 516.822 313.131 516.213C312.846 515.6 312.699 514.891 312.691 514.086V513.471C312.691 512.65 312.834 511.926 313.119 511.297C313.404 510.668 313.807 510.188 314.326 509.855C314.85 509.52 315.447 509.352 316.119 509.352C316.803 509.352 317.404 509.518 317.924 509.85C318.447 510.178 318.85 510.656 319.131 511.285C319.412 511.91 319.553 512.639 319.553 513.471V514.01ZM318.434 513.459C318.434 512.447 318.23 511.672 317.824 511.133C317.418 510.59 316.85 510.318 316.119 510.318C315.408 510.318 314.848 510.59 314.438 511.133C314.031 511.672 313.822 512.422 313.811 513.383V514.01C313.811 514.99 314.016 515.762 314.426 516.324C314.84 516.883 315.408 517.162 316.131 517.162C316.857 517.162 317.42 516.898 317.818 516.371C318.217 515.84 318.422 515.08 318.434 514.092V513.459ZM326.256 518H325.172V512.557H322.254V518H321.164V511.66H326.256V518ZM328.09 511.66H329.18V517.115H332.098V511.66H333.182V517.115H333.938L333.832 519.881H332.859V518H328.09V511.66ZM336.287 518H335.203V511.66H336.287V518ZM335.115 509.979C335.115 509.803 335.168 509.654 335.273 509.533C335.383 509.412 335.543 509.352 335.754 509.352C335.965 509.352 336.125 509.412 336.234 509.533C336.344 509.654 336.398 509.803 336.398 509.979C336.398 510.154 336.344 510.301 336.234 510.418C336.125 510.535 335.965 510.594 335.754 510.594C335.543 510.594 335.383 510.535 335.273 510.418C335.168 510.301 335.115 510.154 335.115 509.979ZM342.873 511.66V518H341.783V515.533H340.148L338.654 518H337.482L339.076 515.369C338.67 515.221 338.357 514.992 338.139 514.684C337.924 514.371 337.816 514.008 337.816 513.594C337.816 513.016 338.033 512.551 338.467 512.199C338.9 511.844 339.48 511.664 340.207 511.66H342.873ZM338.906 513.605C338.906 513.914 339.012 514.164 339.223 514.355C339.434 514.543 339.713 514.639 340.061 514.643H341.783V512.539H340.225C339.822 512.539 339.502 512.639 339.264 512.838C339.025 513.033 338.906 513.289 338.906 513.605ZM352.465 514.232H348.885V518H347.76V509.469H353.045V510.395H348.885V513.312H352.465V514.232ZM355.846 509.469L358.635 516.43L361.424 509.469H362.883V518H361.758V514.678L361.863 511.092L359.062 518H358.201L355.406 511.109L355.518 514.678V518H354.393V509.469H355.846ZM368.15 518H367.061V510.775L364.875 511.578V510.594L367.98 509.428H368.15V518Z" fill="white"/>
<path d="M314 545L314 563" stroke="white" stroke-linecap="round" stroke-linejoin="round" stroke-dasharray="5 0"/>
<path d="M364 563L381.5 545M371 563L386 548M357 563C357 563 367.861 552.029 374.5 545M350 563L368 545M350 556L361 545" stroke="#6D9FBB" stroke-linecap="round" stroke-linejoin="round"/>
<path d="M386.354 555.354C386.549 555.158 386.549 554.842 386.354 554.646C386.158 554.451 385.842 554.451 385.646 554.646L386.354 555.354ZM378.354 563.354L386.354 555.354L385.646 554.646L377.646 562.646L378.354 563.354Z" fill="#6D9FBB"/>
<path d="M386 563H350" stroke="#6D9FBB" stroke-linecap="round" stroke-linejoin="round"/>
<path d="M386 545H350" stroke="#6D9FBB" stroke-linecap="round" stroke-linejoin="round"/>
<path d="M354 545L350 549" stroke="#6D9FBB" stroke-linecap="round" stroke-linejoin="round"/>
<path d="M163 683V615.5" stroke="#53ACFF" stroke-width="2" stroke-linecap="round" stroke-linejoin="round"/>
<path d="M99 428L99 371.5" stroke="#53ACFF" stroke-width="2" stroke-linecap="round" stroke-linejoin="round"/>
<path d="M88 361H70" stroke="#53ACFF" stroke-width="2" stroke-linecap="round" stroke-linejoin="round"/>
<path d="M163 588V554H99V466" stroke="#53ACFF" stroke-width="2" stroke-linecap="round" stroke-linejoin="round"/>
<path d="M181 528.5L82 528.5C79.5147 528.5 77.5 526.485 77.5 524L77.5 417C77.5 414.515 79.5147 412.5 82 412.5L181 412.5C183.485 412.5 185.5 414.515 185.5 417L185.5 524C185.5 526.485 183.485 528.5 181 528.5Z" fill="#FFA200" fill-opacity="0.05" stroke="#E5D9B9"/>
<path d="M132.553 472.01C132.553 472.846 132.412 473.576 132.131 474.201C131.85 474.822 131.451 475.297 130.936 475.625C130.42 475.953 129.818 476.117 129.131 476.117C128.459 476.117 127.863 475.953 127.344 475.625C126.824 475.293 126.42 474.822 126.131 474.213C125.846 473.6 125.699 472.891 125.691 472.086V471.471C125.691 470.65 125.834 469.926 126.119 469.297C126.404 468.668 126.807 468.188 127.326 467.855C127.85 467.52 128.447 467.352 129.119 467.352C129.803 467.352 130.404 467.518 130.924 467.85C131.447 468.178 131.85 468.656 132.131 469.285C132.412 469.91 132.553 470.639 132.553 471.471V472.01ZM131.434 471.459C131.434 470.447 131.23 469.672 130.824 469.133C130.418 468.59 129.85 468.318 129.119 468.318C128.408 468.318 127.848 468.59 127.438 469.133C127.031 469.672 126.822 470.422 126.811 471.383V472.01C126.811 472.99 127.016 473.762 127.426 474.324C127.84 474.883 128.408 475.162 129.131 475.162C129.857 475.162 130.42 474.898 130.818 474.371C131.217 473.84 131.422 473.08 131.434 472.092V471.459ZM139.256 476H138.172V470.557H135.254V476H134.164V469.66H139.256V476ZM141.09 469.66H142.18V475.115H145.098V469.66H146.182V475.115H146.938L146.832 477.881H145.859V476H141.09V469.66ZM149.287 476H148.203V469.66H149.287V476ZM148.115 467.979C148.115 467.803 148.168 467.654 148.273 467.533C148.383 467.412 148.543 467.352 148.754 467.352C148.965 467.352 149.125 467.412 149.234 467.533C149.344 467.654 149.398 467.803 149.398 467.979C149.398 468.154 149.344 468.301 149.234 468.418C149.125 468.535 148.965 468.594 148.754 468.594C148.543 468.594 148.383 468.535 148.273 468.418C148.168 468.301 148.115 468.154 148.115 467.979ZM155.873 469.66V476H154.783V473.533H153.148L151.654 476H150.482L152.076 473.369C151.67 473.221 151.357 472.992 151.139 472.684C150.924 472.371 150.816 472.008 150.816 471.594C150.816 471.016 151.033 470.551 151.467 470.199C151.9 469.844 152.48 469.664 153.207 469.66H155.873ZM151.906 471.605C151.906 471.914 152.012 472.164 152.223 472.355C152.434 472.543 152.713 472.639 153.061 472.643H154.783V470.539H153.225C152.822 470.539 152.502 470.639 152.264 470.838C152.025 471.033 151.906 471.289 151.906 471.605ZM161.891 475.08H165.934V476H160.76V467.469H161.891V475.08ZM170.498 476H169.408V468.775L167.223 469.578V468.594L170.328 467.428H170.498V476Z" fill="white"/>
<rect x="92.5" y="489.5" width="13" height="23" stroke="white"/>
<circle cx="99" cy="501" r="3.5" stroke="white"/>
<circle cx="99" cy="501" r="1" fill="white"/>
<rect x="89.5" y="428.5" width="19" height="37" stroke="white" stroke-linecap="round" stroke-linejoin="round"/>
<path d="M90 438L108 438L90 465" stroke="white" stroke-linecap="round" stroke-linejoin="round"/>
<path d="M90 433L108 433" stroke="white" stroke-linecap="round" stroke-linejoin="round" stroke-dasharray="3 0"/>
<path d="M89 355.804L98 361L89 366.196L89 355.804Z" stroke="white"/>
<path d="M93.8038 371L99 362L104.196 371H93.8038Z" stroke="white"/>
<path d="M99 362L99 371" stroke="white"/>
<path d="M99 361H89" stroke="white"/>
<circle r="1.5" transform="matrix(4.37114e-08 1 1 -4.37114e-08 99 361)" fill="white" stroke="white"/>
<path d="M185 624.5L82 624.5C79.5147 624.5 77.5 622.485 77.5 620L77.5 584C77.5 581.515 79.5147 579.5 82 579.5L185 579.5C187.485 579.5 189.5 581.515 189.5 584L189.5 620C189.5 622.485 187.485 624.5 185 624.5Z" fill="#FFA200" fill-opacity="0.05" stroke="#E5D9B9"/>
<circle cx="163" cy="602" r="5.5" stroke="white"/>
<path d="M160 607L156 615H170L166 607" stroke="white" stroke-linecap="round" stroke-linejoin="round"/>
<path d="M166 597L170 589L156 589L160 597" stroke="white" stroke-linecap="round" stroke-linejoin="round"/>
<path d="M101.553 603.01C101.553 603.846 101.412 604.576 101.131 605.201C100.85 605.822 100.451 606.297 99.9355 606.625C99.4199 606.953 98.8184 607.117 98.1309 607.117C97.459 607.117 96.8633 606.953 96.3438 606.625C95.8242 606.293 95.4199 605.822 95.1309 605.213C94.8457 604.6 94.6992 603.891 94.6914 603.086V602.471C94.6914 601.65 94.834 600.926 95.1191 600.297C95.4043 599.668 95.8066 599.188 96.3262 598.855C96.8496 598.52 97.4473 598.352 98.1191 598.352C98.8027 598.352 99.4043 598.518 99.9238 598.85C100.447 599.178 100.85 599.656 101.131 600.285C101.412 600.91 101.553 601.639 101.553 602.471V603.01ZM100.434 602.459C100.434 601.447 100.23 600.672 99.8242 600.133C99.418 599.59 98.8496 599.318 98.1191 599.318C97.4082 599.318 96.8477 599.59 96.4375 600.133C96.0312 600.672 95.8223 601.422 95.8105 602.383V603.01C95.8105 603.99 96.0156 604.762 96.4258 605.324C96.8398 605.883 97.4082 606.162 98.1309 606.162C98.8574 606.162 99.4199 605.898 99.8184 605.371C100.217 604.84 100.422 604.08 100.434 603.092V602.459ZM108.256 607H107.172V601.557H104.254V607H103.164V600.66H108.256V607ZM110.09 600.66H111.18V606.115H114.098V600.66H115.182V606.115H115.938L115.832 608.881H114.859V607H110.09V600.66ZM118.287 607H117.203V600.66H118.287V607ZM117.115 598.979C117.115 598.803 117.168 598.654 117.273 598.533C117.383 598.412 117.543 598.352 117.754 598.352C117.965 598.352 118.125 598.412 118.234 598.533C118.344 598.654 118.398 598.803 118.398 598.979C118.398 599.154 118.344 599.301 118.234 599.418C118.125 599.535 117.965 599.594 117.754 599.594C117.543 599.594 117.383 599.535 117.273 599.418C117.168 599.301 117.115 599.154 117.115 598.979ZM124.873 600.66V607H123.783V604.533H122.148L120.654 607H119.482L121.076 604.369C120.67 604.221 120.357 603.992 120.139 603.684C119.924 603.371 119.816 603.008 119.816 602.594C119.816 602.016 120.033 601.551 120.467 601.199C120.9 600.844 121.48 600.664 122.207 600.66H124.873ZM120.906 602.605C120.906 602.914 121.012 603.164 121.223 603.355C121.434 603.543 121.713 603.639 122.061 603.643H123.783V601.539H122.225C121.822 601.539 121.502 601.639 121.264 601.838C121.025 602.033 120.906 602.289 120.906 602.605ZM129.76 607V598.469H132.549C133.475 598.469 134.17 598.66 134.635 599.043C135.104 599.426 135.338 599.992 135.338 600.742C135.338 601.141 135.225 601.494 134.998 601.803C134.771 602.107 134.463 602.344 134.072 602.512C134.533 602.641 134.896 602.887 135.162 603.25C135.432 603.609 135.566 604.039 135.566 604.539C135.566 605.305 135.318 605.906 134.822 606.344C134.326 606.781 133.625 607 132.719 607H129.76ZM130.885 603.01V606.08H132.742C133.266 606.08 133.678 605.945 133.979 605.676C134.283 605.402 134.436 605.027 134.436 604.551C134.436 603.523 133.877 603.01 132.76 603.01H130.885ZM130.885 602.107H132.584C133.076 602.107 133.469 601.984 133.762 601.738C134.059 601.492 134.207 601.158 134.207 600.736C134.207 600.268 134.07 599.928 133.797 599.717C133.523 599.502 133.107 599.395 132.549 599.395H130.885V602.107ZM141.941 603.232H138.361V607H137.236V598.469H142.521V599.395H138.361V602.312H141.941V603.232Z" fill="white"/>
<path d="M68.6959 228.226C68.8127 228.318 68.9142 228.4 69 228.469V388.564C68.906 388.65 68.7907 388.753 68.6547 388.873C68.2177 389.259 67.5674 389.814 66.7234 390.481C65.0346 391.817 62.5742 393.601 59.4983 395.385C53.337 398.959 44.7624 402.5 35 402.5C25.2376 402.5 16.663 398.959 10.5017 395.385C7.42576 393.601 4.96539 391.817 3.27659 390.481C2.43255 389.814 1.78229 389.259 1.34532 388.873C1.20932 388.753 1.09402 388.65 1 388.564V228.469C1.08584 228.4 1.18734 228.318 1.30412 228.226C1.74076 227.88 2.39079 227.383 3.23468 226.784C4.92309 225.587 7.38393 223.987 10.4614 222.387C16.6236 219.183 25.2127 216 35 216C44.7873 216 53.3764 219.183 59.5386 222.387C62.6161 223.987 65.0769 225.587 66.7653 226.784C67.6092 227.383 68.2592 227.88 68.6959 228.226Z" stroke="white" stroke-width="2" stroke-linecap="round" stroke-linejoin="round"/>
<path d="M1 228.5H69M1 388.5H69" stroke="white" stroke-width="2" stroke-linecap="round" stroke-linejoin="round"/>
<path d="M613 376L613 393.5" stroke="white"/>
<path d="M613 376L602.5 382.062L602.5 369.938L613 376Z" stroke="white"/>
<path d="M603 376H613" stroke="white"/>
<path d="M613 376L619.062 386.5H606.938L613 376Z" stroke="white"/>
<circle r="2.5" transform="matrix(4.37114e-08 1 1 -4.37114e-08 613 376)" fill="white" stroke="white"/>
<path d="M613 452L613 475" stroke="white"/>
<path d="M613.48 475L603 475" stroke="white"/>
<path d="M613 475L606.938 464.5L619.062 464.5L613 475Z" stroke="white"/>
<path d="M613 475L602.5 481.062L602.5 468.938L613 475Z" stroke="white"/>
<circle r="2.5" transform="matrix(-1 0 0 1 613 475)" fill="white" stroke="white"/>
<circle r="28.5" transform="matrix(-1 0 0 1 613.5 422.5)" stroke="white" stroke-width="2"/>
<circle cx="575" cy="439" r="4.5" stroke="white"/>
<path d="M576.983 438.31C576.971 438.291 576.954 438.275 576.933 438.264C576.913 438.253 576.89 438.247 576.866 438.247H575.109L575.404 436.139C575.407 436.111 575.4 436.083 575.384 436.059C575.367 436.035 575.343 436.017 575.315 436.007C575.286 435.998 575.255 435.998 575.226 436.007C575.197 436.016 575.173 436.034 575.156 436.057L573.02 439.562C573.007 439.581 573.001 439.603 573 439.625C573 439.648 573.005 439.67 573.017 439.689C573.029 439.709 573.046 439.725 573.066 439.736C573.087 439.748 573.11 439.754 573.134 439.754H574.865L574.631 441.864C574.629 441.892 574.637 441.92 574.653 441.944C574.67 441.967 574.695 441.985 574.723 441.994C574.752 442.002 574.783 442.002 574.811 441.993C574.839 441.983 574.864 441.965 574.88 441.941L576.981 438.437C576.993 438.418 577 438.396 577 438.374C577 438.352 576.994 438.33 576.983 438.31Z" fill="white"/>
<path d="M575 433H613L608.5 439L613 445H575" stroke="white" stroke-linecap="round" stroke-linejoin="round"/>
<path d="M605 395L585.5 429M622.5 395L641.5 429" stroke="white" stroke-linecap="round" stroke-linejoin="round"/>
<path d="M615.562 431C610.875 431 607.062 427.187 607.062 422.5C607.062 418.365 610.427 415 614.562 415C618.698 415 622.062 418.365 622.062 422.5C622.062 426.084 619.146 429 615.562 429C611.979 429 609.062 426.084 609.062 422.5C609.062 419.468 611.53 417 614.562 417C617.595 417 620.062 419.468 620.062 422.5C620.062 424.981 618.043 427 615.562 427C613.082 427 611.062 424.981 611.062 422.5C611.062 420.571 612.632 419 614.562 419C616.493 419 618.062 420.571 618.062 422.5C618.062 423.879 616.941 425 615.562 425C614.184 425 613.062 423.879 613.062 422.5C613.062 421.673 613.735 421 614.562 421C615.39 421 616.062 421.673 616.062 422.5V423H615.062V422.5C615.062 422.224 614.838 422 614.562 422C614.287 422 614.062 422.224 614.062 422.5C614.062 423.327 614.735 424 615.562 424C616.39 424 617.062 423.327 617.062 422.5C617.062 421.121 615.941 420 614.562 420C613.184 420 612.062 421.121 612.062 422.5C612.062 424.429 613.632 426 615.562 426C617.493 426 619.062 424.429 619.062 422.5C619.062 420.019 617.043 418 614.562 418C612.082 418 610.062 420.019 610.062 422.5C610.062 425.532 612.53 428 615.562 428C618.595 428 621.062 425.532 621.062 422.5C621.062 418.916 618.146 416 614.562 416C610.979 416 608.062 418.916 608.062 422.5C608.062 426.635 611.427 430 615.562 430C618.231 430 620.721 428.563 622.059 426.25L622.925 426.75C621.408 429.371 618.588 431 615.562 431Z" fill="white"/>
<path d="M565.506 463H564.375V455.395H560.168V463H559.043V454.469H565.506V463ZM569.01 454.469L571.799 461.43L574.588 454.469H576.047V463H574.922V459.678L575.027 456.092L572.227 463H571.365L568.57 456.109L568.682 459.678V463H567.557V454.469H569.01ZM577.963 463V456.66H580.436C581.279 456.66 581.926 456.809 582.375 457.105C582.828 457.398 583.055 457.83 583.055 458.4C583.055 458.693 582.967 458.959 582.791 459.197C582.615 459.432 582.355 459.611 582.012 459.736C582.395 459.826 582.701 460.002 582.932 460.264C583.166 460.525 583.283 460.838 583.283 461.201C583.283 461.783 583.068 462.229 582.639 462.537C582.213 462.846 581.609 463 580.828 463H577.963ZM579.047 460.217V462.127H580.84C581.293 462.127 581.631 462.043 581.854 461.875C582.08 461.707 582.193 461.471 582.193 461.166C582.193 460.533 581.729 460.217 580.799 460.217H579.047ZM579.047 459.35H580.447C581.463 459.35 581.971 459.053 581.971 458.459C581.971 457.865 581.49 457.559 580.529 457.539H579.047V459.35ZM587.104 459.168H586.066V463H584.941V454.469H586.066V458.23H586.945L589.928 454.469H591.328L588.07 458.605L591.568 463H590.191L587.104 459.168Z" fill="white"/>
<rect x="407.5" y="59.5" width="113" height="47" rx="4.5" fill="#FFA200" fill-opacity="0.05" stroke="#E5D9B9"/>
<path d="M428.804 93L434 84L439.196 93L428.804 93Z" stroke="white"/>
<path d="M439.196 74.5L434 83.5L428.804 74.5L439.196 74.5Z" stroke="white"/>
<path d="M434 75V93" stroke="white"/>
<path d="M457.553 84.0098C457.553 84.8457 457.412 85.5762 457.131 86.2012C456.85 86.8223 456.451 87.2969 455.936 87.625C455.42 87.9531 454.818 88.1172 454.131 88.1172C453.459 88.1172 452.863 87.9531 452.344 87.625C451.824 87.293 451.42 86.8223 451.131 86.2129C450.846 85.5996 450.699 84.8906 450.691 84.0859V83.4707C450.691 82.6504 450.834 81.9258 451.119 81.2969C451.404 80.668 451.807 80.1875 452.326 79.8555C452.85 79.5195 453.447 79.3516 454.119 79.3516C454.803 79.3516 455.404 79.5176 455.924 79.8496C456.447 80.1777 456.85 80.6562 457.131 81.2852C457.412 81.9102 457.553 82.6387 457.553 83.4707V84.0098ZM456.434 83.459C456.434 82.4473 456.23 81.6719 455.824 81.1328C455.418 80.5898 454.85 80.3184 454.119 80.3184C453.408 80.3184 452.848 80.5898 452.438 81.1328C452.031 81.6719 451.822 82.4219 451.811 83.3828V84.0098C451.811 84.9902 452.016 85.7617 452.426 86.3242C452.84 86.8828 453.408 87.1621 454.131 87.1621C454.857 87.1621 455.42 86.8984 455.818 86.3711C456.217 85.8398 456.422 85.0801 456.434 84.0918V83.459ZM464.256 88H463.172V82.5566H460.254V88H459.164V81.6602H464.256V88ZM466.09 81.6602H467.18V87.1152H470.098V81.6602H471.182V87.1152H471.938L471.832 89.8809H470.859V88H466.09V81.6602ZM474.287 88H473.203V81.6602H474.287V88ZM473.115 79.9785C473.115 79.8027 473.168 79.6543 473.273 79.5332C473.383 79.4121 473.543 79.3516 473.754 79.3516C473.965 79.3516 474.125 79.4121 474.234 79.5332C474.344 79.6543 474.398 79.8027 474.398 79.9785C474.398 80.1543 474.344 80.3008 474.234 80.418C474.125 80.5352 473.965 80.5938 473.754 80.5938C473.543 80.5938 473.383 80.5352 473.273 80.418C473.168 80.3008 473.115 80.1543 473.115 79.9785ZM480.873 81.6602V88H479.783V85.5332H478.148L476.654 88H475.482L477.076 85.3691C476.67 85.2207 476.357 84.9922 476.139 84.6836C475.924 84.3711 475.816 84.0078 475.816 83.5938C475.816 83.0156 476.033 82.5508 476.467 82.1992C476.9 81.8438 477.48 81.6641 478.207 81.6602H480.873ZM476.906 83.6055C476.906 83.9141 477.012 84.1641 477.223 84.3555C477.434 84.543 477.713 84.6387 478.061 84.6426H479.783V82.5391H478.225C477.822 82.5391 477.502 82.6387 477.264 82.8379C477.025 83.0332 476.906 83.2891 476.906 83.6055ZM492.035 85.293C491.93 86.1953 491.596 86.8926 491.033 87.3848C490.475 87.873 489.73 88.1172 488.801 88.1172C487.793 88.1172 486.984 87.7559 486.375 87.0332C485.77 86.3105 485.467 85.3438 485.467 84.1328V83.3125C485.467 82.5195 485.607 81.8223 485.889 81.2207C486.174 80.6191 486.576 80.1582 487.096 79.8379C487.615 79.5137 488.217 79.3516 488.9 79.3516C489.807 79.3516 490.533 79.6055 491.08 80.1133C491.627 80.6172 491.945 81.3164 492.035 82.2109H490.904C490.807 81.5312 490.594 81.0391 490.266 80.7344C489.941 80.4297 489.486 80.2773 488.9 80.2773C488.182 80.2773 487.617 80.543 487.207 81.0742C486.801 81.6055 486.598 82.3613 486.598 83.3418V84.168C486.598 85.0938 486.791 85.8301 487.178 86.377C487.564 86.9238 488.105 87.1973 488.801 87.1973C489.426 87.1973 489.904 87.0566 490.236 86.7754C490.572 86.4902 490.795 85.9961 490.904 85.293H492.035ZM496.4 86.5059L498.838 79.4688H500.068L496.904 88H495.908L492.75 79.4688H493.975L496.4 86.5059Z" fill="white"/>
<rect x="296.5" y="544.5" width="35" height="19" stroke="white"/>
<circle cx="701.5" cy="348.5" r="2" fill="#6D9FBB" stroke="#20506A"/>
<circle r="29" transform="matrix(-1 0 0 1 88.5 52.5)" stroke="white"/>
<path d="M79.5 25L60.5 59.5M97 25L116.5 59.5" stroke="white" stroke-linecap="round" stroke-linejoin="round"/>
<path d="M91.5 42.8727C91.5 44.7193 91.1161 47.4564 90.4927 49.7274C90.1806 50.8642 89.8164 51.855 89.4263 52.5506C89.2308 52.8991 89.0417 53.15 88.8684 53.3082C88.6956 53.4659 88.5745 53.5 88.5 53.5C88.4255 53.5 88.3044 53.4659 88.1316 53.3082C87.9583 53.15 87.7692 52.8991 87.5737 52.5506C87.1836 51.855 86.8194 50.8642 86.5073 49.7274C85.8839 47.4564 85.5 44.7193 85.5 42.8727C85.5 41.037 85.88 39.3997 86.4707 38.2399C87.0753 37.0527 87.8201 36.5 88.5 36.5C89.1799 36.5 89.9247 37.0527 90.5293 38.2399C91.12 39.3997 91.5 41.037 91.5 42.8727Z" stroke="white"/>
<path d="M96.1811 61.5005C94.5819 60.5772 92.4035 58.8763 90.7484 57.2009C89.9199 56.3622 89.2441 55.5513 88.8367 54.8657C88.6326 54.5222 88.5098 54.2329 88.4595 54.0037C88.4094 53.7752 88.4404 53.6533 88.4776 53.5888C88.5149 53.5243 88.6049 53.4365 88.8279 53.3657C89.0515 53.2947 89.3634 53.2564 89.763 53.2614C90.5604 53.2713 91.6006 53.4512 92.7411 53.7494C95.0196 54.345 97.5819 55.3811 99.1811 56.3044C100.771 57.2223 101.999 58.37 102.708 59.4614C103.434 60.5787 103.54 61.5 103.2 62.0888C102.86 62.6776 102.009 63.0463 100.679 62.9763C99.3788 62.9079 97.7709 62.4184 96.1811 61.5005Z" stroke="white"/>
<path d="M77.4966 56.3043C79.0958 55.381 81.6581 54.345 83.9365 53.7493C85.0771 53.4512 86.1173 53.2713 86.9147 53.2613C87.3143 53.2564 87.6261 53.2946 87.8498 53.3657C88.0727 53.4365 88.1628 53.5243 88.2001 53.5888C88.2373 53.6533 88.2683 53.7752 88.2181 54.0037C88.1678 54.2329 88.0451 54.5221 87.841 54.8657C87.4336 55.5513 86.7577 56.3622 85.9292 57.2008C84.2742 58.8762 82.0958 60.5772 80.4966 61.5005C78.9067 62.4184 77.2989 62.9079 75.9991 62.9763C74.6686 63.0463 73.8176 62.6776 73.4776 62.0888C73.1377 61.5 73.2439 60.5786 73.9697 59.4614C74.6789 58.3699 75.9067 57.2222 77.4966 56.3043Z" stroke="white"/>
</svg>
